<svg width="1600" height="980" viewBox="0 0 1600 980" fill="none" xmlns="http://www.w3.org/2000/svg">
  <rect width="1600" height="980" fill="#F6F0E8"/>
  <rect x="72" y="72" width="1456" height="836" rx="36" fill="url(#panel)"/>
  <rect x="112" y="112" width="918" height="756" rx="28" fill="#FBF7F2"/>
  <rect x="1066" y="112" width="422" height="260" rx="26" fill="#F2E9DE"/>
  <rect x="1066" y="394" width="422" height="474" rx="26" fill="#FFFDFC"/>
  <circle cx="338" cy="544" r="188" fill="url(#tomatoA)"/>
  <circle cx="610" cy="448" r="146" fill="url(#tomatoB)"/>
  <circle cx="760" cy="670" r="98" fill="url(#tomatoC)"/>
  <circle cx="670" cy="350" r="26" fill="#2F5E43"/>
  <circle cx="760" cy="564" r="18" fill="#2F5E43"/>
  <path d="M674 347C696 312 734 301 770 313" stroke="#2F5E43" stroke-width="10" stroke-linecap="round"/>
  <path d="M744 560C763 533 790 521 818 528" stroke="#2F5E43" stroke-width="8" stroke-linecap="round"/>
  <rect x="1140" y="176" width="164" height="26" rx="13" fill="#E4D6C6"/>
  <rect x="1140" y="222" width="280" height="14" rx="7" fill="#C9B4A0"/>
  <rect x="1140" y="252" width="246" height="14" rx="7" fill="#D6C4B1"/>
  <rect x="1140" y="282" width="194" height="14" rx="7" fill="#D6C4B1"/>
  <rect x="1140" y="470" width="86" height="18" rx="9" fill="#E8DED1"/>
  <rect x="1140" y="520" width="242" height="16" rx="8" fill="#3A2B22"/>
  <rect x="1140" y="554" width="208" height="16" rx="8" fill="#5C483D"/>
  <rect x="1140" y="618" width="272" height="10" rx="5" fill="#C7B19C"/>
  <rect x="1140" y="642" width="238" height="10" rx="5" fill="#C7B19C"/>
  <rect x="1140" y="666" width="254" height="10" rx="5" fill="#C7B19C"/>
  <rect x="1140" y="730" width="116" height="40" rx="20" fill="#231913"/>
  <rect x="1276" y="730" width="140" height="40" rx="20" fill="#EFE5D9" stroke="#D7C7B8"/>
  <text x="1140" y="160" fill="#7C6858" font-family="Georgia, serif" font-size="22" letter-spacing="5">QUIET PRECISION</text>
  <text x="1140" y="504" fill="#927A68" font-family="Arial, sans-serif" font-size="18" letter-spacing="3">EDITORIAL CUT</text>
  <text x="1140" y="804" fill="#7A6656" font-family="Arial, sans-serif" font-size="16" letter-spacing="3">TASTE / ORDER / GIFT</text>
  <defs>
    <linearGradient id="panel" x1="800" y1="72" x2="800" y2="908" gradientUnits="userSpaceOnUse">
      <stop stop-color="#F9F3EC"/>
      <stop offset="1" stop-color="#EEE4D7"/>
    </linearGradient>
    <radialGradient id="tomatoA" cx="0" cy="0" r="1" gradientUnits="userSpaceOnUse" gradientTransform="translate(338 468) rotate(79.9243) scale(266.214)">
      <stop stop-color="#F7A26A"/>
      <stop offset="0.48" stop-color="#D35D3F"/>
      <stop offset="1" stop-color="#8A2D25"/>
    </radialGradient>
    <radialGradient id="tomatoB" cx="0" cy="0" r="1" gradientUnits="userSpaceOnUse" gradientTransform="translate(610 392) rotate(90) scale(202)">
      <stop stop-color="#F6C48E"/>
      <stop offset="0.52" stop-color="#D97751"/>
      <stop offset="1" stop-color="#99372B"/>
    </radialGradient>
    <radialGradient id="tomatoC" cx="0" cy="0" r="1" gradientUnits="userSpaceOnUse" gradientTransform="translate(760 630) rotate(90) scale(130)">
      <stop stop-color="#F8BA83"/>
      <stop offset="0.52" stop-color="#D56B49"/>
      <stop offset="1" stop-color="#9B3528"/>
    </radialGradient>
  </defs>
</svg>
