<svg width="1200" height="960" viewBox="0 0 1200 960" fill="none" xmlns="http://www.w3.org/2000/svg">
  <rect width="1200" height="960" fill="#F6F0E8"/>
  <rect x="56" y="56" width="1088" height="848" rx="30" fill="#FBF7F2"/>
  <rect x="92" y="110" width="1016" height="740" rx="24" fill="url(#bg)"/>
  <circle cx="696" cy="514" r="274" fill="url(#fruit)"/>
  <circle cx="594" cy="394" r="34" fill="#FFE4D5"/>
  <circle cx="810" cy="442" r="22" fill="#FFE7D8"/>
  <circle cx="748" cy="612" r="18" fill="#FFF1E7"/>
  <circle cx="610" cy="544" r="22" fill="#FFFFFF" fill-opacity="0.74"/>
  <circle cx="856" cy="578" r="18" fill="#FFFFFF" fill-opacity="0.66"/>
  <circle cx="560" cy="614" r="12" fill="#FFFFFF" fill-opacity="0.62"/>
  <path d="M790 270C820 226 870 204 920 212" stroke="#57714C" stroke-width="12" stroke-linecap="round"/>
  <path d="M790 270C760 234 704 220 654 228" stroke="#57714C" stroke-width="10" stroke-linecap="round"/>
  <path d="M198 742C334 676 500 638 682 642C864 646 1018 690 1108 744V850H198V742Z" fill="#DDD0C5"/>
  <defs>
    <linearGradient id="bg" x1="600" y1="110" x2="600" y2="850" gradientUnits="userSpaceOnUse">
      <stop stop-color="#FBF8F3"/>
      <stop offset="1" stop-color="#F0E7DD"/>
    </linearGradient>
    <radialGradient id="fruit" cx="0" cy="0" r="1" gradientUnits="userSpaceOnUse" gradientTransform="translate(696 486) rotate(90) scale(318)">
      <stop stop-color="#F8BC86"/>
      <stop offset="0.5" stop-color="#D75F46"/>
      <stop offset="1" stop-color="#862A26"/>
    </radialGradient>
  </defs>
</svg>
