<svg width="1200" height="960" viewBox="0 0 1200 960" fill="none" xmlns="http://www.w3.org/2000/svg">
  <rect width="1200" height="960" fill="#F5EFE7"/>
  <rect x="56" y="56" width="1088" height="848" rx="30" fill="#FBF7F2"/>
  <rect x="92" y="110" width="1016" height="740" rx="24" fill="#F7F2EB"/>
  <path d="M240 780C338 646 454 556 590 526C694 504 790 522 862 574C912 610 954 656 996 676C1028 692 1066 694 1108 684V850H204L240 780Z" fill="#6B564D"/>
  <path d="M418 626C470 566 558 534 644 542C726 550 802 594 832 666C854 718 848 780 812 824C772 872 706 896 632 892C554 886 484 850 438 788C404 742 392 692 418 626Z" fill="#E1B395"/>
  <circle cx="700" cy="398" r="148" fill="url(#fruit)"/>
  <circle cx="810" cy="340" r="24" fill="#4E6A4A"/>
  <path d="M812 340C844 302 892 290 936 302" stroke="#4E6A4A" stroke-width="9" stroke-linecap="round"/>
  <path d="M602 464C654 436 690 390 706 340" stroke="#E5D4C5" stroke-width="7" stroke-linecap="round"/>
  <rect x="182" y="180" width="156" height="18" rx="9" fill="#E7DBD0"/>
  <rect x="182" y="216" width="218" height="12" rx="6" fill="#D8C8BB"/>
  <defs>
    <radialGradient id="fruit" cx="0" cy="0" r="1" gradientUnits="userSpaceOnUse" gradientTransform="translate(700 372) rotate(90) scale(176)">
      <stop stop-color="#F6BA84"/>
      <stop offset="0.48" stop-color="#D25C45"/>
      <stop offset="1" stop-color="#852D28"/>
    </radialGradient>
  </defs>
</svg>
