<svg width="1200" height="960" viewBox="0 0 1200 960" fill="none" xmlns="http://www.w3.org/2000/svg">
  <rect width="1200" height="960" fill="#F5EFE7"/>
  <rect x="56" y="56" width="1088" height="848" rx="30" fill="#FBF7F2"/>
  <rect x="92" y="110" width="1016" height="740" rx="24" fill="#F7F2EB"/>
  <path d="M264 418L612 316L864 438L518 540L264 418Z" fill="#EFE3D5"/>
  <path d="M264 418L518 540V778L264 662V418Z" fill="#E2D0BF"/>
  <path d="M518 540L864 438V672L518 778V540Z" fill="#D7C1AB"/>
  <circle cx="560" cy="514" r="80" fill="url(#fruitA)"/>
  <circle cx="708" cy="480" r="76" fill="url(#fruitB)"/>
  <circle cx="632" cy="594" r="84" fill="url(#fruitC)"/>
  <circle cx="710" cy="428" r="18" fill="#4E6A4A"/>
  <path d="M710 426C742 390 790 378 832 392" stroke="#4E6A4A" stroke-width="8" stroke-linecap="round"/>
  <path d="M204 794C358 720 532 688 736 700C890 708 1016 736 1108 786V850H204V794Z" fill="#DCD0C4"/>
  <rect x="176" y="176" width="170" height="18" rx="9" fill="#E7DBD0"/>
  <rect x="176" y="212" width="214" height="12" rx="6" fill="#D8C8BB"/>
  <defs>
    <radialGradient id="fruitA" cx="0" cy="0" r="1" gradientUnits="userSpaceOnUse" gradientTransform="translate(560 488) rotate(90) scale(96)">
      <stop stop-color="#F7BC86"/>
      <stop offset="1" stop-color="#8A3028"/>
    </radialGradient>
    <radialGradient id="fruitB" cx="0" cy="0" r="1" gradientUnits="userSpaceOnUse" gradientTransform="translate(708 454) rotate(90) scale(92)">
      <stop stop-color="#F4B37B"/>
      <stop offset="1" stop-color="#822925"/>
    </radialGradient>
    <radialGradient id="fruitC" cx="0" cy="0" r="1" gradientUnits="userSpaceOnUse" gradientTransform="translate(632 566) rotate(90) scale(100)">
      <stop stop-color="#F6BD8B"/>
      <stop offset="1" stop-color="#8C322A"/>
    </radialGradient>
  </defs>
</svg>
